# cube.obj
#
o cube
mtllib cube.mtl

v -0.500000 -0.500000 0.500000
v 0.500000 -0.500000 0.500000
v 0.500000 0.500000 0.500000
v -0.500000 0.500000 0.500000
v 0.500000 -0.500000 -0.500000
v 0.500000 0.500000 -0.500000
v -0.500000 -0.500000 -0.500000
v -0.500000 0.500000 -0.500000

vt 0.000000 0.000000
vt 1.000000 0.000000
vt 0.000000 1.000000
vt 1.000000 1.000000

vn 0.000000 0.000000 1.000000
vn 0.000000 1.000000 0.000000
vn 1.000000 0.000000 0.000000
vn 0.000000 0.000000 -1.000000
vn 0.000000 -1.000000 0.000000
vn -1.000000 0.000000 0.000000

g cube
usemtl cube
s 1
f 1/1/1 2/3/1 3/4/1
f 1/1/1 3/4/1 4/2/1
s 2
f 2/1/3 5/3/3 6/4/3
f 2/1/3 6/4/3 3/2/3
s 3
f 3/1/2 6/3/2 8/4/2
f 3/1/2 8/4/2 4/2/2
s 4
f 5/1/4 7/3/4 8/4/4
f 5/1/4 8/4/4 6/2/4
s 5
f 7/1/6 1/3/6 4/4/6
f 7/1/6 4/4/6 8/2/6
s 6
f 5/1/5 2/3/5 1/4/5
f 5/1/5 1/4/5 7/2/5
